<svg xmlns="http://www.w3.org/2000/svg" data-name="Layer 1" viewBox="0 0 64 64" id="bitcoin-currency-exchange"><path d="M15 .16A14.94 14.94 0 1 0 29.88 15.1 15 15 0 0 0 15 .16Zm0 26.94a12 12 0 1 1 12-12 12 12 0 0 1-12 12Z"></path><path d="M15 4.69A10.41 10.41 0 1 0 25.36 15.1 10.42 10.42 0 0 0 15 4.69Zm3.58 15.56a5 5 0 0 1-2.73 1.14h-.17v1.17a.79.79 0 0 1-.79.79.79.79 0 0 1-.8-.79V21.5h-.2a17.78 17.78 0 0 1-2-.13.8.8 0 0 1-.69-.79V9.71a.79.79 0 0 1 .63-.78 13.92 13.92 0 0 1 2.09-.24H14V7.62a.8.8 0 0 1 .8-.8.79.79 0 0 1 .79.8v1.13h.18a4.36 4.36 0 0 1 2.27.9 3.11 3.11 0 0 1 1.2 2.56 3.2 3.2 0 0 1-.88 2.2l-.15.16.17.13a3.46 3.46 0 0 1 1.28 2.75 3.83 3.83 0 0 1-1.13 2.8Z"></path><path d="M16.47 13.85a1.81 1.81 0 0 0 1.22-1.62 1.52 1.52 0 0 0-.59-1.3 3.34 3.34 0 0 0-2.18-.64h-.36a14.75 14.75 0 0 0-1.64.09h-.17v3.49h3.74zm-.1 1.6h-3.64v4.42h1.41a5 5 0 0 0 3.29-.83 2.16 2.16 0 0 0 .67-1.62 2.1 2.1 0 0 0-1.73-1.97zM49.05 34A14.94 14.94 0 1 0 64 48.9 15 15 0 0 0 49.05 34zm0 26.95a12 12 0 1 1 12-12 12 12 0 0 1-12 11.96z"></path><path d="M49.05 38.49A10.41 10.41 0 1 0 59.46 48.9a10.42 10.42 0 0 0-10.41-10.41zm-2.52 8.45a2.33 2.33 0 0 0 .89.88 3.56 3.56 0 0 0 1.49.35c.3 0 .58 0 .88.1A4.13 4.13 0 0 1 53 50.53a3.31 3.31 0 0 1-.34 3.22A4.43 4.43 0 0 1 50 55.48h-.16v.86a.8.8 0 1 1-1.59 0v-.84h-.16a3.91 3.91 0 0 1-3.36-3.75.8.8 0 0 1 .8-.78v-.2.2a.78.78 0 0 1 .56.24.77.77 0 0 1 .21.57c0 1.46 1.6 2.2 2.71 2.24h.1a2.81 2.81 0 0 0 2.23-1.15 1.71 1.71 0 0 0 .19-1.7 2.77 2.77 0 0 0-2.05-1.3c-.25 0-.49-.06-.8-.08a4.81 4.81 0 0 1-2.1-.57 3.89 3.89 0 0 1-1.51-1.56 3.55 3.55 0 0 1 .23-3.45 4.27 4.27 0 0 1 2.77-1.81h.16v-.92a.79.79 0 0 1 .79-.79.79.79 0 0 1 .8.79v1h.16a4.23 4.23 0 0 1 3.35 3.24.82.82 0 0 1-.65.93h-.14a.78.78 0 0 1-.78-.66 2.69 2.69 0 0 0-2.64-2.06H49a2.75 2.75 0 0 0-2.33 1.18 2 2 0 0 0-.14 1.83zM25.33 52H15.6a2.48 2.48 0 0 1-2.49-2.49V42l.81.87a1.47 1.47 0 0 0 1.09.48 1.49 1.49 0 0 0 1-.4 1.49 1.49 0 0 0 .08-2.11l-3.4-3.64a1.49 1.49 0 0 0-1.08-.47 1.52 1.52 0 0 0-1.09.48l-3.4 3.66a1.49 1.49 0 1 0 2.19 2l.81-.87v7.5A5.49 5.49 0 0 0 15.6 55h9.73a1.5 1.5 0 0 0 0-3zm13.34-40h9.73a2.48 2.48 0 0 1 2.49 2.49V22l-.81-.87A1.49 1.49 0 0 0 48 21a1.49 1.49 0 0 0-.08 2.11l3.43 3.68a1.36 1.36 0 0 0 .36.26l.09-.17v.22a1.27 1.27 0 0 0 .41.1H52.36a1.45 1.45 0 0 0 .65-.16 1.5 1.5 0 0 0 .44-.32l3.4-3.66a1.49 1.49 0 0 0-1.09-2.51 1.47 1.47 0 0 0-1.09.48l-.82.87v-7.5A5.48 5.48 0 0 0 48.4 9h-9.73a1.5 1.5 0 0 0 0 3z"></path></svg>