<svg xmlns="http://www.w3.org/2000/svg" viewBox="0 0 68 68" id="custom-broker"><path d="M47.9 43.5v18.7c0 .6-.6 1.2-1.3 1.3l-19 2.6h-.5l-19-2.6c-.8-.1-1.3-.7-1.3-1.3v-22l14.5 2h.4c.8 0 1.5-.3 1.9-.9l3.8-4.8 3.7 4.8c.4.5 1.1.9 1.9.9h.4l2.3-.3c.8 1 2.1 1.7 3.5 1.7h8.7zM28 28.4l.5-.6 3.9-5.1c.2-.2.5-.3.8-.3l1.5.2v7.5l-6.1-.8c-.6 0-.9-.5-.6-.9z"></path><path d="m35 40.6-1.8.3c-.3 0-.6-.1-.7-.3L28 35c-.3-.4 0-.9.5-.9l3.4-.5 2.7-.4v5.7c0 .6.1 1.2.4 1.7zm-24.8-9.1-1.2.2 2.3.3 15 2c.5.1.8.6.5.9l-.5.6-3.9 5.1c-.2.2-.5.3-.8.3l-19-2.6c-.5-.1-.8-.6-.5-1l4.4-5.6h-.1L2.1 26c-.3-.4 0-.9.5-.9l18.9-2.6c.3 0 .6.1.8.3l4.4 5.6c.3.4 0 .9-.5.9l-3.4.5-12.6 1.7zM63.4 5.2h-4.6l1.4 2.6h3.2V39H39.2V7.7h3.2l1.4-2.6h-4.6c-1.4 0-2.6 1.1-2.6 2.6v31.2c0 1.4 1.1 2.6 2.6 2.6h24.3c1.4 0 2.6-1.1 2.6-2.6V7.7c-.1-1.4-1.2-2.5-2.7-2.5z"></path><path d="M55.9 5.2h-2.1c0-.2.1-.4.1-.6 0-1.4-1.1-2.6-2.6-2.6-1.4 0-2.6 1.2-2.6 2.6 0 .2 0 .4.1.6h-2.1l-2.1 3.7H58l-2.1-3.7zm-4.6-2.3c1 0 1.7.8 1.7 1.7s-.8 1.7-1.7 1.7-1.7-.8-1.7-1.7.8-1.7 1.7-1.7zm9.4 27.6c0 .4-.3.6-.6.6H42.5c-.4 0-.6-.3-.6-.6 0-.4.3-.6.6-.6h17.6c.4-.1.6.2.6.6zm0-4.1c0 .3-.3.6-.6.6H42.5c-.4 0-.6-.3-.6-.6 0-.4.3-.6.6-.6h17.6c.4 0 .6.3.6.6zm0-4.1c0 .4-.3.6-.6.6H42.5c-.4 0-.6-.3-.6-.6s.3-.6.6-.6h17.6c.4 0 .6.3.6.6zm0 12.2c0 .4-.3.6-.6.6H42.5c-.4 0-.6-.3-.6-.6s.3-.6.6-.6h17.6c.4 0 .6.3.6.6zm0-16.2c0 .4-.3.6-.6.6H42.5c-.4 0-.6-.3-.6-.6 0-.4.3-.6.6-.6h17.6c.4-.1.6.2.6.6zm-18.8-4.1c0-.4.3-.6.6-.6h17.6c.4 0 .6.3.6.6s-.3.6-.6.6H42.5c-.3.1-.6-.2-.6-.6z"></path></svg>