<svg xmlns="http://www.w3.org/2000/svg" enable-background="new 0 0 64 64" viewBox="0 0 64 64" id="dollar-stack-up"><path d="M22 36c0 3.273 1.588 6.175 4.025 8h-1.131C23.85 44 23 44.85 23 45.895v4.211c0 .325.09.627.235.895C23.09 51.268 23 51.569 23 51.895v4.211c0 .325.09.627.235.895C23.09 57.268 23 57.569 23 57.895v4.211C23 63.15 23.85 64 24.895 64h14.211C40.15 64 41 63.15 41 62.105v-4.211c0-.325-.09-.627-.235-.895C40.91 56.732 41 56.431 41 56.105v-4.211c0-.325-.09-.627-.235-.895C40.91 50.732 41 50.431 41 50.105v-4.211C41 44.85 40.15 44 39.105 44h-1.131C40.412 42.175 42 39.273 42 36c0-5.514-4.486-10-10-10S22 30.486 22 36zM39 56h-2v-4h2V56zM25 52h2v4h-2V52zM31 46v4h-2v-4H31zM35 56h-6v-4h2v2c0 .552.448 1 1 1s1-.448 1-1v-2h2V56zM29 58h2v4h-2V58zM33 58h2v4h-2V58zM35 50h-2v-4h2V50zM25 46h2v4h-2V46zM25 58h2v4h-2V58zM39 62h-2v-4h2V62zM39 50h-2v-4h2V50zM32 28c4.411 0 8 3.589 8 8s-3.589 8-8 8-8-3.589-8-8S27.589 28 32 28zM54 20c-5.514 0-10 4.486-10 10 0 3.273 1.588 6.175 4.025 8h-1.131C45.85 38 45 38.85 45 39.895v4.211c0 .325.09.627.235.895C45.09 45.268 45 45.569 45 45.895v4.211c0 .325.09.627.235.895C45.09 51.268 45 51.569 45 51.895v4.211c0 .325.09.627.235.895C45.09 57.268 45 57.569 45 57.895v4.211C45 63.15 45.85 64 46.895 64h14.211C62.15 64 63 63.15 63 62.105v-4.211c0-.325-.09-.627-.235-.895C62.91 56.732 63 56.431 63 56.105v-4.211c0-.325-.09-.627-.235-.895C62.91 50.732 63 50.431 63 50.105v-4.211c0-.325-.09-.627-.235-.895C62.91 44.732 63 44.431 63 44.105v-4.211C63 38.85 62.15 38 61.105 38h-1.131C62.412 36.175 64 33.273 64 30 64 24.486 59.514 20 54 20zM53 40v4h-2v-4H53zM57 50h-2v-4h2V50zM51 52h2v4h-2V52zM53 46v4h-2v-2c0-.552-.448-1-1-1s-1 .448-1 1v2h-2v-4H53zM47 52h2v4h-2V52zM51 58h2v4h-2V58zM55 52h2v4h-2V52zM59 52h2v4h-2V52zM61 50h-2v-4h2V50zM57 44h-2v-4h2V44zM47 40h2v4h-2V40zM47 58h2v4h-2V58zM61 62h-6v-4h2v2c0 .552.448 1 1 1s1-.448 1-1v-2h2V62zM61 44h-2v-4h2V44zM54 38c-4.411 0-8-3.589-8-8s3.589-8 8-8 8 3.589 8 8S58.411 38 54 38zM0 48c0 3.273 1.588 6.175 4.025 8H2.895C1.85 56 1 56.85 1 57.895v4.211C1 63.15 1.85 64 2.895 64h14.211C18.15 64 19 63.15 19 62.105v-4.211C19 56.85 18.15 56 17.105 56h-1.131C18.412 54.175 20 51.273 20 48c0-5.514-4.486-10-10-10S0 42.486 0 48zM13 58v4h-2v-4H13zM3 58h6v4H7v-2c0-.552-.448-1-1-1s-1 .448-1 1v2H3V58zM17 62h-2v-4h2V62zM10 40c4.411 0 8 3.589 8 8s-3.589 8-8 8-8-3.589-8-8S5.589 40 10 40z"></path><path d="M10 55c3.86 0 7-3.14 7-7s-3.14-7-7-7-7 3.14-7 7S6.14 55 10 55zM10 43c2.757 0 5 2.243 5 5s-2.243 5-5 5-5-2.243-5-5S7.243 43 10 43zM32 43c3.86 0 7-3.14 7-7s-3.14-7-7-7-7 3.14-7 7S28.14 43 32 43zM32 31c2.757 0 5 2.243 5 5s-2.243 5-5 5-5-2.243-5-5S29.243 31 32 31zM54 23c-3.86 0-7 3.14-7 7s3.14 7 7 7 7-3.14 7-7S57.86 23 54 23zM54 35c-2.757 0-5-2.243-5-5s2.243-5 5-5 5 2.243 5 5S56.757 35 54 35zM8 36h4c.552 0 1-.448 1-1v-6h2c.404 0 .769-.244.924-.617.155-.374.069-.804-.217-1.09l-5-5c-.391-.391-1.023-.391-1.414 0l-5 5c-.286.286-.372.716-.217 1.09C4.231 28.756 4.596 29 5 29h2v6C7 35.552 7.448 36 8 36zM10 24.414L12.586 27H12c-.552 0-1 .448-1 1v6H9v-6c0-.552-.448-1-1-1H7.414L10 24.414zM30 23h4c.552 0 1-.448 1-1v-6h2c.404 0 .769-.244.924-.617.155-.374.069-.804-.217-1.09l-5-5c-.391-.391-1.023-.391-1.414 0l-5 5c-.286.286-.372.716-.217 1.09C26.231 15.756 26.596 16 27 16h2v6C29 22.552 29.448 23 30 23zM32 11.414L34.586 14H34c-.552 0-1 .448-1 1v6h-2v-6c0-.552-.448-1-1-1h-.586L32 11.414zM52 14h4c.552 0 1-.448 1-1V7h2c.404 0 .769-.244.924-.617.155-.374.069-.804-.217-1.09l-5-5c-.391-.391-1.023-.391-1.414 0l-5 5c-.286.286-.372.716-.217 1.09C48.231 6.756 48.596 7 49 7h2v6C51 13.552 51.448 14 52 14zM54 2.414L56.586 5H56c-.552 0-1 .448-1 1v6h-2V6c0-.552-.448-1-1-1h-.586L54 2.414z"></path><path d="M9.009 43.957C7.843 44.314 7 45.269 7 46.4c0 1.434 1.346 2.6 3 2.6.572 0 1 .317 1 .6s-.428.6-1 .6c-.475 0-.793-.208-.922-.386-.324-.447-.948-.548-1.396-.224-.447.324-.547.949-.224 1.396.367.506.919.86 1.55 1.051C9.028 52.571 9.461 53 10 53c.537 0 .968-.426.991-.957C12.157 51.686 13 50.731 13 49.6c0-1.434-1.346-2.6-3-2.6-.572 0-1-.317-1-.6s.428-.6 1-.6c.475 0 .793.208.922.386.324.447.949.548 1.396.224.447-.324.547-.949.224-1.396-.367-.506-.919-.86-1.55-1.051C10.972 43.429 10.539 43 10 43 9.463 43 9.032 43.426 9.009 43.957zM31.009 31.957C29.843 32.314 29 33.269 29 34.4c0 1.434 1.346 2.6 3 2.6.572 0 1 .317 1 .6s-.428.6-1 .6c-.475 0-.793-.208-.922-.386-.325-.447-.949-.548-1.396-.224s-.547.949-.224 1.396c.367.506.919.86 1.55 1.051C31.028 40.571 31.461 41 32 41c.537 0 .968-.426.991-.957C34.157 39.686 35 38.731 35 37.6c0-1.434-1.346-2.6-3-2.6-.572 0-1-.317-1-.6s.428-.6 1-.6c.475 0 .793.208.922.386.324.446.949.549 1.396.224.447-.324.547-.949.224-1.396-.367-.506-.919-.86-1.55-1.051C32.972 31.429 32.539 31 32 31 31.463 31 31.032 31.426 31.009 31.957zM54.991 34.043C56.157 33.686 57 32.731 57 31.6c0-1.434-1.346-2.6-3-2.6-.572 0-1-.317-1-.6s.428-.6 1-.6c.475 0 .793.208.922.386.325.446.949.548 1.396.224.447-.324.547-.949.224-1.396-.367-.506-.919-.86-1.55-1.051C54.972 25.429 54.539 25 54 25c-.537 0-.968.426-.991.957C51.843 26.314 51 27.269 51 28.4c0 1.434 1.346 2.6 3 2.6.572 0 1 .317 1 .6s-.428.6-1 .6c-.475 0-.793-.208-.922-.386-.325-.447-.949-.548-1.396-.224-.447.324-.547.949-.224 1.396.367.506.919.86 1.55 1.051C53.028 34.571 53.461 35 54 35 54.537 35 54.968 34.574 54.991 34.043z"></path></svg>