<svg xmlns="http://www.w3.org/2000/svg" enable-background="new 0 0 64 64" viewBox="0 0 64 64" id="wealth"><path d="M63.97,16.85c-0.01-0.03-0.03-0.09-0.03-0.09c0,0,0,0,0,0l-0.01-0.03c0,0,0,0,0-0.01l-0.04-0.08L52.3,1.35
	c-0.04-0.05-0.08-0.09-0.14-0.15c-0.04-0.03-0.11-0.08-0.14-0.09c-0.07-0.05-0.15-0.07-0.26-0.09l-0.06,0.29l0,0l-0.05-0.3H12.99
	c-0.03,0-0.11,0-0.2,0.03l-0.07,0.01l-0.04,0.04c-0.06,0.03-0.11,0.06-0.14,0.09c-0.07,0.05-0.12,0.11-0.15,0.16L0.19,16.57
	c-0.04,0.04-0.05,0.08-0.07,0.12c0,0,0,0.01-0.01,0.01l-0.08,0.14v0.05C0.01,16.95,0,17.02,0,17.08c0,0.08,0.01,0.16,0.04,0.24
	c0.03,0.08,0.07,0.16,0.12,0.23l31.6,45.09c0.14,0.21,0.38,0.34,0.64,0.34h0.01h0c0.01,0,0.02,0,0.03,0c0.03,0,0.08-0.01,0.13-0.02
	c0.04-0.01,0.09-0.02,0.13-0.04l0.12-0.01l0.04-0.08c0.03-0.02,0.05-0.05,0.07-0.07c0.04-0.03,0.07-0.07,0.09-0.1
	c0.01-0.01,0.02-0.03,0.03-0.04l17.11-25.05c1.25,0.69,2.68,1.1,4.22,1.1c4.77,0,8.65-3.88,8.65-8.65c0-2.68-1.24-5.08-3.16-6.67
	l3.97-5.8c0.02-0.03,0.05-0.08,0.06-0.11l0.06-0.13l0.01-0.05C64.01,17.14,64.01,17.01,63.97,16.85z M60.58,28.09
	c0,0.27-0.22,0.49-0.49,0.49h-1.22v3.37c0,0.27-0.22,0.49-0.49,0.49c-0.27,0-0.49-0.21-0.49-0.49v-3.37h-1.22
	c-0.27,0-0.49-0.21-0.49-0.49c0-0.27,0.21-0.49,0.49-0.49h3.41C60.36,27.6,60.58,27.82,60.58,28.09z M52,32.41L52,32.41
	c-0.03,0.01-0.05,0.01-0.07,0.01c-0.03,0.01-0.06,0.01-0.08,0.01c-0.15,0-0.28-0.06-0.38-0.18l-2.3-2.81v2.18
	c0,0.27-0.22,0.49-0.49,0.49c-0.27,0-0.49-0.21-0.49-0.49v-3.53c0-0.2,0.13-0.39,0.32-0.46c0.2-0.07,0.41-0.01,0.54,0.15l2.31,2.81
	v-2.5c0-0.27,0.21-0.49,0.49-0.49c0.26,0,0.49,0.21,0.49,0.49v3.85c0,0.04,0,0.08-0.02,0.12c0,0.04-0.02,0.07-0.03,0.09
	c-0.03,0.08-0.08,0.14-0.15,0.19c-0.03,0.02-0.06,0.05-0.1,0.06C52.03,32.4,52.02,32.4,52,32.41z M54.39,21.37
	c-4.77,0-8.65,3.88-8.65,8.65c0,2.68,1.23,5.08,3.16,6.67l-14.5,21.23l10.98-40.06h16.38l-3.14,4.61
	C57.35,21.78,55.92,21.37,54.39,21.37z M43.75,17.86L32.36,59.39L19.77,17.86H43.75z M18.14,17.86l12.09,39.87L2.28,17.86H18.14z
	 M44.66,16.16L33.8,2.58h16.97L44.66,16.16z M18.9,16.16L13.82,2.58h17.37L18.9,16.16z M53.67,31.94c0,0.27-0.21,0.49-0.49,0.49
	c-0.26,0-0.49-0.21-0.49-0.49v-3.85c0-0.27,0.22-0.49,0.49-0.49h2.43c0.27,0,0.49,0.21,0.49,0.49c0,0.27-0.21,0.49-0.49,0.49h-1.94
	v0.96h1.94c0.27,0,0.49,0.21,0.49,0.49c0,0.26-0.21,0.49-0.49,0.49h-1.94V31.94z"></path></svg>