<svg xmlns="http://www.w3.org/2000/svg" width="64" height="64" viewBox="0 0 16.933 16.933" id="whitelist"><path style="line-height:normal;font-variant-ligatures:normal;font-variant-position:normal;font-variant-caps:normal;font-variant-numeric:normal;font-variant-alternates:normal;font-feature-settings:normal;text-indent:0;text-align:start;text-decoration-line:none;text-decoration-style:solid;text-decoration-color:#000;text-transform:none;text-orientation:mixed;shape-padding:0;isolation:auto;mix-blend-mode:normal" fill="#3b3c3d" d="m 2.1166946,280.06666 c -0.581369,0 -1.0583329,0.47696 -1.0583329,1.05833 v 12.7 c 0,0.58137 0.4769639,1.05834 1.0583329,1.05834 h 5.712831 c 0.07342,0.0708 0.156951,0.13126 0.25011,0.17518 -0.08848,0.14203 -0.142107,0.308 -0.142107,0.48628 0,0.50749 0.415343,0.92604 0.922417,0.92604 h 3.8478354 c 0.577982,0 1.055793,-0.23098 1.369431,-0.43461 0.103954,0.25173 0.346974,0.43461 0.633544,0.43461 h 1.693439 v -5.82084 h -1.693439 c -0.212434,0 -0.398753,0.102 -0.52451,0.25633 -0.566526,-0.0416 -0.953955,-0.42111 -0.953955,-0.99428 l -0.0032,-2.17297 c 0,-0.14591 -0.118666,-0.26405 -0.264583,-0.26408 h -0.264584 v -4.7625 c -2.6e-5,-0.0702 -0.02791,-0.13745 -0.07752,-0.18706 l -2.381249,-2.38125 c -0.04961,-0.0496 -0.116893,-0.0775 -0.187061,-0.0775 z m 8.2020844,0.90331 1.477433,1.47794 h -1.216475 c -0.147187,0 -0.260958,-0.11329 -0.260958,-0.26046 z m -7.4047094,1.74252 c 0.14613,0 0.264584,0.11846 0.264584,0.26459 0,0.14613 -0.118454,0.26458 -0.264584,0.26458 -0.146129,0 -0.264583,-0.11845 -0.264583,-0.26458 0,-0.14613 0.118454,-0.26459 0.264583,-0.26459 z m 1.591628,0 h 3.167247 c 0.357796,-0.005 0.357796,0.53422 0,0.52917 h -3.167247 c -0.357796,0.005 -0.357796,-0.53422 0,-0.52917 z m -1.591628,1.5875 c 0.14613,0 0.264584,0.11846 0.264584,0.26459 0,0.14613 -0.118454,0.26458 -0.264584,0.26458 -0.146129,0 -0.264583,-0.11845 -0.264583,-0.26458 0,-0.14613 0.118454,-0.26459 0.264583,-0.26459 z m 1.591628,0 h 4.225581 c 0.357796,-0.005 0.357796,0.53422 0,0.52917 h -4.225581 c -0.357796,0.005 -0.357796,-0.53422 0,-0.52917 z m -1.591628,1.5875 c 0.14613,0 0.264584,0.11846 0.264584,0.26459 0,0.14613 -0.118454,0.26458 -0.264584,0.26458 -0.146129,0 -0.264583,-0.11845 -0.264583,-0.26458 0,-0.14613 0.118454,-0.26459 0.264583,-0.26459 z m 1.591628,0 h 4.225581 c 0.357796,-0.005 0.357796,0.53422 0,0.52917 h -4.225581 c -0.357796,0.005 -0.357796,-0.53422 0,-0.52917 z m -1.591628,1.5875 c 0.14613,0 0.264584,0.11846 0.264584,0.26459 0,0.14613 -0.118454,0.26458 -0.264584,0.26458 -0.146129,0 -0.264583,-0.11845 -0.264583,-0.26458 0,-0.14613 0.118454,-0.26459 0.264583,-0.26459 z m 1.591628,0 h 4.225581 c 0.357796,-0.005 0.357796,0.53422 0,0.52917 h -4.225581 c -0.357796,0.005 -0.357796,-0.53422 0,-0.52917 z m 7.8336244,0.52917 h 0.0553 c 0.02688,0.004 0.05424,0.004 0.08112,0 h 0.224817 l 0.0026,1.90841 c 0,0.78801 0.574516,1.39182 1.319821,1.50895 v 3.99873 c -0.16846,0.1403 -0.680059,0.52141 -1.315165,0.52141 H 8.8600246 c -0.219445,0 -0.39325,-0.17375 -0.39325,-0.39687 0,-0.22313 0.173805,-0.39688 0.39325,-0.39688 h 0.135837 c 0.357796,0.005 0.357796,-0.53422 0,-0.52917 h -0.529167 c -0.125756,0 -0.235294,-0.0581 -0.306969,-0.14882 -0.0066,-0.01 -0.01376,-0.0191 -0.0217,-0.0279 -0.04075,-0.0625 -0.06459,-0.13798 -0.06459,-0.22013 0,-0.22312 0.173858,-0.39688 0.39325,-0.39688 h 0.264583 c 0.357796,0.005 0.357796,-0.53422 0,-0.52916 h -0.665082 c -0.219446,0 -0.393251,-0.17376 -0.393251,-0.39688 0,-0.22312 0.173805,-0.39687 0.393251,-0.39687 h 0.400499 c 0.357797,0.005 0.357797,-0.53422 0,-0.52917 h -0.400499 -0.264584 c -0.219445,0 -0.39325,-0.17375 -0.39325,-0.39687 0,-0.22313 0.173805,-0.39688 0.39325,-0.39688 h 3.0463334 c 0.120703,5e-5 0.22614,-0.0816 0.256329,-0.19844 l 0.588063,-2.27531 c 0.05511,-0.21309 0.144118,-0.4005 0.251671,-0.52038 0.107553,-0.11991 0.218652,-0.18087 0.395314,-0.18087 z m -9.4252524,1.05833 c 0.14613,0 0.264584,0.11846 0.264584,0.26459 0,0.14613 -0.118454,0.26458 -0.264584,0.26458 -0.146129,0 -0.264583,-0.11845 -0.264583,-0.26458 0,-0.14613 0.118454,-0.26459 0.264583,-0.26459 z m 1.591628,0 h 4.225581 c 0.357796,-0.005 0.357796,0.53422 0,0.52917 h -4.225581 c -0.357796,0.005 -0.357796,-0.53422 0,-0.52917 z m -1.591628,1.5875 c 0.14613,0 0.264584,0.11846 0.264584,0.26459 0,0.14613 -0.118454,0.26458 -0.264584,0.26458 -0.146129,0 -0.264583,-0.11845 -0.264583,-0.26458 0,-0.14613 0.118454,-0.26459 0.264583,-0.26459 z m 1.591628,0 h 1.050581 c 0.357796,-0.005 0.357796,0.53422 0,0.52917 h -1.050581 c -0.357796,0.005 -0.357796,-0.53422 0,-0.52917 z m 10.8401644,3.175 a 0.26458332,0.26458334 0 0 1 0.264583,0.26459 0.26458332,0.26458334 0 0 1 -0.264583,0.26458 0.26458332,0.26458334 0 0 1 -0.264583,-0.26458 0.26458332,0.26458334 0 0 1 0.264583,-0.26459 z m 0,1.05834 a 0.26458332,0.26458334 0 0 1 0.264583,0.26458 0.26458332,0.26458334 0 0 1 -0.264583,0.26458 0.26458332,0.26458334 0 0 1 -0.264583,-0.26458 0.26458332,0.26458334 0 0 1 0.264583,-0.26458 z" color="#000" font-family="sans-serif" font-weight="400" overflow="visible" paint-order="fill markers stroke" transform="translate(0 -280.067)"></path></svg>